<svg width="74" height="29" viewBox="0 0 74 29" fill="none" xmlns="http://www.w3.org/2000/svg">
<path d="M9.025 22.968L0.108 14.458L9.025 5.985H13.28L4.326 14.458L13.28 22.968H9.025ZM23.7394 11.498C24.4301 10.2893 25.4414 9.30267 26.7734 8.538C28.1054 7.77333 29.6224 7.391 31.3244 7.391C33.1498 7.391 34.7901 7.82267 36.2454 8.686C37.7008 9.54933 38.8478 10.7703 39.6864 12.349C40.5251 13.903 40.9444 15.716 40.9444 17.788C40.9444 19.8353 40.5251 21.6607 39.6864 23.264C38.8478 24.8673 37.6884 26.113 36.2084 27.001C34.7531 27.889 33.1251 28.333 31.3244 28.333C29.5731 28.333 28.0314 27.9507 26.6994 27.186C25.3921 26.4213 24.4054 25.447 23.7394 24.263V28H20.3724V0.62H23.7394V11.498ZM37.5034 17.788C37.5034 16.2587 37.1951 14.9267 36.5784 13.792C35.9618 12.6573 35.1231 11.794 34.0624 11.202C33.0264 10.61 31.8794 10.314 30.6214 10.314C29.3881 10.314 28.2411 10.6223 27.1804 11.239C26.1444 11.831 25.3058 12.7067 24.6644 13.866C24.0478 15.0007 23.7394 16.3203 23.7394 17.825C23.7394 19.3543 24.0478 20.6987 24.6644 21.858C25.3058 22.9927 26.1444 23.8683 27.1804 24.485C28.2411 25.077 29.3881 25.373 30.6214 25.373C31.8794 25.373 33.0264 25.077 34.0624 24.485C35.1231 23.8683 35.9618 22.9927 36.5784 21.858C37.1951 20.6987 37.5034 19.342 37.5034 17.788ZM48.7433 11.017C49.3353 9.85767 50.174 8.95733 51.2593 8.316C52.3693 7.67467 53.7137 7.354 55.2923 7.354V10.832H54.4043C50.6303 10.832 48.7433 12.8793 48.7433 16.974V28H45.3763V7.724H48.7433V11.017ZM59.8081 5.985H64.0631L73.0171 14.458L64.0631 22.968H59.8081L68.7621 14.458L59.8081 5.985Z" fill="#828282" fill-opacity="0.23"/>
</svg>
